<mxfile host="app.diagrams.net" modified="2021-08-02T07:09:37.797Z" agent="5.0 (Windows NT 10.0; Win64; x64) AppleWebKit/537.36 (KHTML, like Gecko) Chrome/92.0.4515.107 Safari/537.36 Edg/92.0.902.62" etag="nKZNuRE-mMyDU-ziYV-m" version="14.9.3" type="github">
  <diagram id="Fv2M5q8WV5kopCifAtBS" name="Page-1">
    <mxGraphModel dx="1422" dy="762" grid="1" gridSize="10" guides="1" tooltips="1" connect="1" arrows="1" fold="1" page="1" pageScale="1" pageWidth="827" pageHeight="1169" math="0" shadow="0">
      <root>
        <mxCell id="0" />
        <mxCell id="1" parent="0" />
        <mxCell id="GR9pu1r3niY57sTmeitB-1" style="edgeStyle=orthogonalEdgeStyle;rounded=0;html=1;exitX=0.5;exitY=1;exitPerimeter=0;jettySize=auto;orthogonalLoop=1;strokeColor=#66B2FF;fontSize=12;" edge="1" parent="1" source="GR9pu1r3niY57sTmeitB-2" target="GR9pu1r3niY57sTmeitB-21">
          <mxGeometry relative="1" as="geometry" />
        </mxCell>
        <mxCell id="GR9pu1r3niY57sTmeitB-2" value="用户进入小程序" style="strokeWidth=2;html=1;shape=mxgraph.flowchart.start_1;whiteSpace=wrap;fillColor=#FFFFFF;fontSize=12;" vertex="1" parent="1">
          <mxGeometry x="420" y="190" width="100" height="60" as="geometry" />
        </mxCell>
        <mxCell id="GR9pu1r3niY57sTmeitB-3" style="edgeStyle=orthogonalEdgeStyle;rounded=0;html=1;exitX=0.5;exitY=1;exitPerimeter=0;entryX=0.5;entryY=0;entryPerimeter=0;jettySize=auto;orthogonalLoop=1;strokeColor=#66B2FF;fontSize=12;" edge="1" parent="1" source="GR9pu1r3niY57sTmeitB-4">
          <mxGeometry relative="1" as="geometry">
            <mxPoint x="470" y="510" as="targetPoint" />
          </mxGeometry>
        </mxCell>
        <mxCell id="GR9pu1r3niY57sTmeitB-4" value="获取小程序用户标签" style="strokeWidth=2;html=1;shape=mxgraph.flowchart.process;whiteSpace=wrap;fillColor=#FFFFFF;fontSize=12;" vertex="1" parent="1">
          <mxGeometry x="420" y="410" width="100" height="60" as="geometry" />
        </mxCell>
        <mxCell id="GR9pu1r3niY57sTmeitB-5" value="是" style="edgeStyle=orthogonalEdgeStyle;rounded=0;html=1;exitX=0.5;exitY=1;exitPerimeter=0;jettySize=auto;orthogonalLoop=1;strokeColor=#66B2FF;fontSize=12;entryX=0.5;entryY=0;entryPerimeter=0;" edge="1" parent="1" source="GR9pu1r3niY57sTmeitB-7" target="GR9pu1r3niY57sTmeitB-10">
          <mxGeometry relative="1" as="geometry">
            <mxPoint x="470" y="790" as="targetPoint" />
            <Array as="points" />
          </mxGeometry>
        </mxCell>
        <mxCell id="GR9pu1r3niY57sTmeitB-6" value="否" style="edgeStyle=orthogonalEdgeStyle;rounded=0;html=1;exitX=0;exitY=0.5;exitPerimeter=0;entryX=1;entryY=0.5;entryPerimeter=0;jettySize=auto;orthogonalLoop=1;strokeColor=#66B2FF;fontSize=12;fontColor=#000000;" edge="1" parent="1" source="GR9pu1r3niY57sTmeitB-7" target="GR9pu1r3niY57sTmeitB-14">
          <mxGeometry relative="1" as="geometry" />
        </mxCell>
        <mxCell id="GR9pu1r3niY57sTmeitB-7" value="&lt;span&gt;获取当前标签是否有进行中的计划&lt;/span&gt;" style="strokeWidth=2;html=1;shape=mxgraph.flowchart.decision;whiteSpace=wrap;fillColor=#FFFFFF;fontSize=12;" vertex="1" parent="1">
          <mxGeometry x="390" y="630" width="160" height="80" as="geometry" />
        </mxCell>
        <mxCell id="GR9pu1r3niY57sTmeitB-8" value="是" style="edgeStyle=orthogonalEdgeStyle;rounded=0;html=1;exitX=0.5;exitY=1;exitPerimeter=0;jettySize=auto;orthogonalLoop=1;strokeColor=#66B2FF;fontSize=12;" edge="1" parent="1" source="GR9pu1r3niY57sTmeitB-10" target="GR9pu1r3niY57sTmeitB-12">
          <mxGeometry relative="1" as="geometry" />
        </mxCell>
        <mxCell id="GR9pu1r3niY57sTmeitB-9" value="否" style="edgeStyle=orthogonalEdgeStyle;rounded=0;html=1;exitX=1;exitY=0.5;exitPerimeter=0;entryX=0;entryY=0.5;entryPerimeter=0;jettySize=auto;orthogonalLoop=1;strokeColor=#66B2FF;fontSize=12;" edge="1" parent="1" source="GR9pu1r3niY57sTmeitB-10" target="GR9pu1r3niY57sTmeitB-26">
          <mxGeometry relative="1" as="geometry" />
        </mxCell>
        <mxCell id="GR9pu1r3niY57sTmeitB-10" value="用户条件是是否符合计划中的条件&lt;br&gt;" style="strokeWidth=2;html=1;shape=mxgraph.flowchart.decision;whiteSpace=wrap;fillColor=#FFFFFF;fontSize=12;" vertex="1" parent="1">
          <mxGeometry x="390" y="755" width="160" height="80" as="geometry" />
        </mxCell>
        <mxCell id="GR9pu1r3niY57sTmeitB-11" style="edgeStyle=orthogonalEdgeStyle;rounded=0;html=1;exitX=0.5;exitY=1;exitPerimeter=0;entryX=0;entryY=0.5;entryPerimeter=0;jettySize=auto;orthogonalLoop=1;strokeColor=#66B2FF;fontSize=12;" edge="1" parent="1" source="GR9pu1r3niY57sTmeitB-12" target="GR9pu1r3niY57sTmeitB-23">
          <mxGeometry relative="1" as="geometry" />
        </mxCell>
        <mxCell id="GR9pu1r3niY57sTmeitB-12" value="返回新人活动素材页地址" style="strokeWidth=2;html=1;shape=mxgraph.flowchart.process;whiteSpace=wrap;fillColor=#FFFFFF;fontSize=12;" vertex="1" parent="1">
          <mxGeometry x="420" y="870" width="100" height="60" as="geometry" />
        </mxCell>
        <mxCell id="GR9pu1r3niY57sTmeitB-13" value="是" style="edgeStyle=orthogonalEdgeStyle;rounded=0;html=1;exitX=0.5;exitY=1;exitPerimeter=0;entryX=0;entryY=0.5;entryPerimeter=0;jettySize=auto;orthogonalLoop=1;strokeColor=#66B2FF;fontSize=12;fontColor=#000000;" edge="1" parent="1" source="GR9pu1r3niY57sTmeitB-14" target="GR9pu1r3niY57sTmeitB-10">
          <mxGeometry relative="1" as="geometry" />
        </mxCell>
        <mxCell id="GR9pu1r3niY57sTmeitB-14" value="默认方案" style="strokeWidth=2;html=1;shape=mxgraph.flowchart.process;whiteSpace=wrap;fillColor=#FFFFFF;fontSize=12;" vertex="1" parent="1">
          <mxGeometry x="245" y="640" width="100" height="60" as="geometry" />
        </mxCell>
        <mxCell id="GR9pu1r3niY57sTmeitB-15" value="" style="strokeWidth=2;html=1;shape=mxgraph.flowchart.annotation_2;align=left;fillColor=#FFFFFF;fontSize=12;direction=west;" vertex="1" parent="1">
          <mxGeometry x="195" y="620" width="50" height="100" as="geometry" />
        </mxCell>
        <mxCell id="GR9pu1r3niY57sTmeitB-16" value="&lt;p&gt;&amp;nbsp;&amp;nbsp;①注册大于3天用户&lt;/p&gt;&lt;p&gt;&amp;nbsp; ②未充值k币用户&lt;/p&gt;" style="text;html=1;resizable=0;points=[];autosize=1;align=left;verticalAlign=top;spacingTop=-4;fontSize=12;" vertex="1" parent="1">
          <mxGeometry x="90" y="635" width="120" height="70" as="geometry" />
        </mxCell>
        <mxCell id="GR9pu1r3niY57sTmeitB-17" value="" style="strokeWidth=2;html=1;shape=mxgraph.flowchart.annotation_2;align=left;fillColor=#FFFFFF;fontSize=12;" vertex="1" parent="1">
          <mxGeometry x="550" y="280" width="50" height="100" as="geometry" />
        </mxCell>
        <mxCell id="GR9pu1r3niY57sTmeitB-18" value="活动开关交由前端控制" style="text;html=1;resizable=0;points=[];autosize=1;align=left;verticalAlign=top;spacingTop=-4;fontSize=12;" vertex="1" parent="1">
          <mxGeometry x="593" y="320" width="140" height="20" as="geometry" />
        </mxCell>
        <mxCell id="GR9pu1r3niY57sTmeitB-19" value="是" style="edgeStyle=orthogonalEdgeStyle;rounded=0;html=1;exitX=0.5;exitY=1;exitPerimeter=0;entryX=0.5;entryY=0;entryPerimeter=0;jettySize=auto;orthogonalLoop=1;strokeColor=#66B2FF;fontSize=12;" edge="1" parent="1" source="GR9pu1r3niY57sTmeitB-21" target="GR9pu1r3niY57sTmeitB-4">
          <mxGeometry relative="1" as="geometry" />
        </mxCell>
        <mxCell id="GR9pu1r3niY57sTmeitB-20" value="否" style="edgeStyle=orthogonalEdgeStyle;rounded=0;html=1;exitX=0;exitY=0.5;exitPerimeter=0;jettySize=auto;orthogonalLoop=1;strokeColor=#66B2FF;fontSize=12;" edge="1" parent="1" source="GR9pu1r3niY57sTmeitB-21" target="GR9pu1r3niY57sTmeitB-22">
          <mxGeometry relative="1" as="geometry" />
        </mxCell>
        <mxCell id="GR9pu1r3niY57sTmeitB-21" value="判断小程序中活动开关是否开启&lt;br&gt;" style="strokeWidth=2;html=1;shape=mxgraph.flowchart.decision;whiteSpace=wrap;fillColor=#FFFFFF;fontSize=12;" vertex="1" parent="1">
          <mxGeometry x="390" y="290" width="160" height="80" as="geometry" />
        </mxCell>
        <mxCell id="GR9pu1r3niY57sTmeitB-22" value="不请求获取素材地址接口" style="strokeWidth=2;html=1;shape=mxgraph.flowchart.terminator;whiteSpace=wrap;fillColor=#FFFFFF;fontSize=12;" vertex="1" parent="1">
          <mxGeometry x="240" y="300" width="100" height="60" as="geometry" />
        </mxCell>
        <mxCell id="GR9pu1r3niY57sTmeitB-23" value="展示活动UI" style="strokeWidth=2;html=1;shape=mxgraph.flowchart.terminator;whiteSpace=wrap;fillColor=#FFFFFF;fontSize=12;" vertex="1" parent="1">
          <mxGeometry x="695" y="1020" width="100" height="60" as="geometry" />
        </mxCell>
        <mxCell id="GR9pu1r3niY57sTmeitB-24" value="是" style="edgeStyle=orthogonalEdgeStyle;rounded=0;html=1;exitX=1;exitY=0.5;exitPerimeter=0;entryX=0.5;entryY=0;entryPerimeter=0;jettySize=auto;orthogonalLoop=1;strokeColor=#66B2FF;fontSize=12;" edge="1" parent="1" source="GR9pu1r3niY57sTmeitB-26" target="GR9pu1r3niY57sTmeitB-28">
          <mxGeometry relative="1" as="geometry" />
        </mxCell>
        <mxCell id="GR9pu1r3niY57sTmeitB-25" value="否" style="edgeStyle=orthogonalEdgeStyle;rounded=0;html=1;exitX=0.5;exitY=1;exitPerimeter=0;jettySize=auto;orthogonalLoop=1;strokeColor=#66B2FF;fontSize=12;" edge="1" parent="1" source="GR9pu1r3niY57sTmeitB-26" target="GR9pu1r3niY57sTmeitB-27">
          <mxGeometry relative="1" as="geometry" />
        </mxCell>
        <mxCell id="GR9pu1r3niY57sTmeitB-26" value="判断用户今天是否签到&lt;br&gt;" style="strokeWidth=2;html=1;shape=mxgraph.flowchart.decision;whiteSpace=wrap;fillColor=#FFFFFF;fontSize=12;" vertex="1" parent="1">
          <mxGeometry x="790" y="750" width="160" height="90" as="geometry" />
        </mxCell>
        <mxCell id="GR9pu1r3niY57sTmeitB-27" value="展示签到UI" style="strokeWidth=2;html=1;shape=mxgraph.flowchart.terminator;whiteSpace=wrap;fillColor=#FFFFFF;fontSize=12;" vertex="1" parent="1">
          <mxGeometry x="820" y="1020" width="100" height="60" as="geometry" />
        </mxCell>
        <mxCell id="GR9pu1r3niY57sTmeitB-28" value="展示已签到UI" style="strokeWidth=2;html=1;shape=mxgraph.flowchart.terminator;whiteSpace=wrap;fillColor=#FFFFFF;fontSize=12;" vertex="1" parent="1">
          <mxGeometry x="930" y="1020" width="100" height="60" as="geometry" />
        </mxCell>
        <mxCell id="GR9pu1r3niY57sTmeitB-29" style="edgeStyle=orthogonalEdgeStyle;rounded=0;html=1;exitX=0.5;exitY=1;exitPerimeter=0;entryX=0.5;entryY=0;entryPerimeter=0;jettySize=auto;orthogonalLoop=1;strokeColor=#66B2FF;fontSize=12;" edge="1" parent="1" source="GR9pu1r3niY57sTmeitB-31">
          <mxGeometry relative="1" as="geometry">
            <mxPoint x="1365" y="300" as="targetPoint" />
          </mxGeometry>
        </mxCell>
        <mxCell id="GR9pu1r3niY57sTmeitB-30" style="edgeStyle=orthogonalEdgeStyle;rounded=0;html=1;exitX=0.5;exitY=1;exitPerimeter=0;entryX=0.5;entryY=0;entryPerimeter=0;jettySize=auto;orthogonalLoop=1;strokeColor=#66B2FF;fontSize=12;" edge="1" parent="1" source="GR9pu1r3niY57sTmeitB-31">
          <mxGeometry relative="1" as="geometry">
            <mxPoint x="1555" y="300" as="targetPoint" />
          </mxGeometry>
        </mxCell>
        <mxCell id="GR9pu1r3niY57sTmeitB-31" value="公众号聊天会话" style="strokeWidth=2;html=1;shape=mxgraph.flowchart.start_1;whiteSpace=wrap;fillColor=#FFFFFF;fontSize=12;" vertex="1" parent="1">
          <mxGeometry x="1405" y="190" width="100" height="60" as="geometry" />
        </mxCell>
        <mxCell id="GR9pu1r3niY57sTmeitB-32" style="edgeStyle=orthogonalEdgeStyle;rounded=0;html=1;exitX=0.5;exitY=1;exitPerimeter=0;jettySize=auto;orthogonalLoop=1;strokeColor=#66B2FF;fontSize=12;" edge="1" parent="1" target="GR9pu1r3niY57sTmeitB-35">
          <mxGeometry relative="1" as="geometry">
            <mxPoint x="1365" y="360" as="sourcePoint" />
          </mxGeometry>
        </mxCell>
        <mxCell id="GR9pu1r3niY57sTmeitB-33" style="edgeStyle=orthogonalEdgeStyle;rounded=0;html=1;exitX=0.5;exitY=1;exitPerimeter=0;jettySize=auto;orthogonalLoop=1;strokeColor=#66B2FF;fontSize=12;" edge="1" parent="1" target="GR9pu1r3niY57sTmeitB-42">
          <mxGeometry relative="1" as="geometry">
            <mxPoint x="1555" y="360" as="sourcePoint" />
          </mxGeometry>
        </mxCell>
        <mxCell id="GR9pu1r3niY57sTmeitB-34" style="edgeStyle=orthogonalEdgeStyle;rounded=0;html=1;exitX=0;exitY=0.5;exitPerimeter=0;entryX=1;entryY=0.5;entryPerimeter=0;jettySize=auto;orthogonalLoop=1;strokeColor=#66B2FF;fontSize=12;" edge="1" parent="1" source="GR9pu1r3niY57sTmeitB-35" target="GR9pu1r3niY57sTmeitB-56">
          <mxGeometry relative="1" as="geometry">
            <mxPoint x="1260" y="440" as="targetPoint" />
            <Array as="points" />
          </mxGeometry>
        </mxCell>
        <mxCell id="GR9pu1r3niY57sTmeitB-35" value="仅能进行签到" style="strokeWidth=2;html=1;shape=mxgraph.flowchart.process;whiteSpace=wrap;fontSize=12;" vertex="1" parent="1">
          <mxGeometry x="1315" y="410" width="100" height="60" as="geometry" />
        </mxCell>
        <mxCell id="GR9pu1r3niY57sTmeitB-36" style="edgeStyle=orthogonalEdgeStyle;rounded=0;html=1;exitX=0.5;exitY=1;exitPerimeter=0;entryX=0.5;entryY=0;entryPerimeter=0;jettySize=auto;orthogonalLoop=1;strokeColor=#66B2FF;fontSize=12;" edge="1" parent="1" source="GR9pu1r3niY57sTmeitB-37" target="GR9pu1r3niY57sTmeitB-40">
          <mxGeometry relative="1" as="geometry" />
        </mxCell>
        <mxCell id="GR9pu1r3niY57sTmeitB-37" value="从签到后的小程序卡片可进行新人奖励的领取" style="strokeWidth=2;html=1;shape=mxgraph.flowchart.process;whiteSpace=wrap;fillColor=#FFFFFF;fontSize=12;" vertex="1" parent="1">
          <mxGeometry x="1315" y="510" width="100" height="60" as="geometry" />
        </mxCell>
        <mxCell id="GR9pu1r3niY57sTmeitB-38" value="奖励发放" style="strokeWidth=2;html=1;shape=mxgraph.flowchart.terminator;whiteSpace=wrap;fillColor=#FFFFFF;fontSize=12;" vertex="1" parent="1">
          <mxGeometry x="1405" y="890" width="100" height="60" as="geometry" />
        </mxCell>
        <mxCell id="GR9pu1r3niY57sTmeitB-39" style="edgeStyle=orthogonalEdgeStyle;rounded=0;html=1;exitX=0.5;exitY=1;exitPerimeter=0;entryX=0;entryY=0.5;entryPerimeter=0;jettySize=auto;orthogonalLoop=1;strokeColor=#66B2FF;fontSize=12;" edge="1" parent="1" source="GR9pu1r3niY57sTmeitB-40" target="GR9pu1r3niY57sTmeitB-38">
          <mxGeometry relative="1" as="geometry" />
        </mxCell>
        <mxCell id="GR9pu1r3niY57sTmeitB-40" value="回到小程序" style="strokeWidth=2;html=1;shape=mxgraph.flowchart.process;whiteSpace=wrap;fillColor=#FFFFFF;fontSize=12;" vertex="1" parent="1">
          <mxGeometry x="1315" y="605" width="100" height="60" as="geometry" />
        </mxCell>
        <mxCell id="GR9pu1r3niY57sTmeitB-41" style="edgeStyle=orthogonalEdgeStyle;rounded=0;html=1;exitX=0.5;exitY=1;exitPerimeter=0;entryX=1;entryY=0.5;entryPerimeter=0;jettySize=auto;orthogonalLoop=1;strokeColor=#66B2FF;fontSize=12;" edge="1" parent="1" source="GR9pu1r3niY57sTmeitB-42" target="GR9pu1r3niY57sTmeitB-40">
          <mxGeometry relative="1" as="geometry" />
        </mxCell>
        <mxCell id="GR9pu1r3niY57sTmeitB-42" value="返回‘点击这里返回小程序的’小程序卡片" style="strokeWidth=2;html=1;shape=mxgraph.flowchart.process;whiteSpace=wrap;fillColor=#FFFFFF;fontSize=12;" vertex="1" parent="1">
          <mxGeometry x="1505" y="410" width="100" height="60" as="geometry" />
        </mxCell>
        <mxCell id="GR9pu1r3niY57sTmeitB-43" style="edgeStyle=orthogonalEdgeStyle;rounded=0;html=1;exitX=1;exitY=0.5;exitPerimeter=0;entryX=0;entryY=0.5;entryPerimeter=0;jettySize=auto;orthogonalLoop=1;strokeColor=#66B2FF;fontSize=12;" edge="1" parent="1" source="GR9pu1r3niY57sTmeitB-44" target="GR9pu1r3niY57sTmeitB-37">
          <mxGeometry relative="1" as="geometry" />
        </mxCell>
        <mxCell id="GR9pu1r3niY57sTmeitB-44" value="返回小程序卡片" style="strokeWidth=2;html=1;shape=mxgraph.flowchart.process;whiteSpace=wrap;fillColor=#FFFFFF;fontSize=12;" vertex="1" parent="1">
          <mxGeometry x="1160" y="510" width="100" height="60" as="geometry" />
        </mxCell>
        <mxCell id="GR9pu1r3niY57sTmeitB-45" value="&lt;font color=&quot;#000000&quot;&gt;需要为小程序用户定义我方数据库中的标签。付费用户和免费用户&lt;/font&gt;" style="shape=note;whiteSpace=wrap;html=1;fontSize=12;" vertex="1" parent="1">
          <mxGeometry x="890" y="390" width="140" height="100" as="geometry" />
        </mxCell>
        <mxCell id="GR9pu1r3niY57sTmeitB-46" style="edgeStyle=orthogonalEdgeStyle;rounded=0;html=1;exitX=1;exitY=0.5;exitPerimeter=0;entryX=1;entryY=0.5;entryPerimeter=0;jettySize=auto;orthogonalLoop=1;strokeColor=#66B2FF;fontSize=12;fontColor=#00FFFF;" edge="1" parent="1" source="GR9pu1r3niY57sTmeitB-4" target="GR9pu1r3niY57sTmeitB-4">
          <mxGeometry relative="1" as="geometry" />
        </mxCell>
        <mxCell id="GR9pu1r3niY57sTmeitB-47" value="" style="endArrow=none;dashed=1;html=1;strokeColor=#66B2FF;fontSize=12;fontColor=#00FFFF;entryX=0;entryY=0.5;exitX=1;exitY=0.5;exitPerimeter=0;" edge="1" parent="1" source="GR9pu1r3niY57sTmeitB-4" target="GR9pu1r3niY57sTmeitB-45">
          <mxGeometry width="50" height="50" relative="1" as="geometry">
            <mxPoint x="240" y="1020" as="sourcePoint" />
            <mxPoint x="290" y="970" as="targetPoint" />
            <Array as="points" />
          </mxGeometry>
        </mxCell>
        <mxCell id="GR9pu1r3niY57sTmeitB-48" value="&lt;font color=&quot;#000000&quot;&gt;用户点击时，上报用户点击记录。以便用户返回小程序后，能直接获取对应奖励。&lt;/font&gt;" style="shape=note;whiteSpace=wrap;html=1;strokeColor=#3399FF;fillColor=#FFFFFF;fontSize=12;fontColor=#00FFFF;" vertex="1" parent="1">
          <mxGeometry x="250" y="850" width="110" height="140" as="geometry" />
        </mxCell>
        <mxCell id="GR9pu1r3niY57sTmeitB-49" value="否" style="edgeStyle=orthogonalEdgeStyle;rounded=0;html=1;exitX=0.5;exitY=1;exitPerimeter=0;jettySize=auto;orthogonalLoop=1;strokeColor=#66B2FF;fontSize=12;fontColor=#000000;" edge="1" parent="1" source="GR9pu1r3niY57sTmeitB-51" target="GR9pu1r3niY57sTmeitB-7">
          <mxGeometry relative="1" as="geometry" />
        </mxCell>
        <mxCell id="GR9pu1r3niY57sTmeitB-50" value="是" style="edgeStyle=orthogonalEdgeStyle;rounded=0;html=1;exitX=1;exitY=0.5;exitPerimeter=0;entryX=0.5;entryY=0;entryPerimeter=0;jettySize=auto;orthogonalLoop=1;strokeColor=#66B2FF;fontSize=12;fontColor=#000000;" edge="1" parent="1" source="GR9pu1r3niY57sTmeitB-51" target="GR9pu1r3niY57sTmeitB-26">
          <mxGeometry relative="1" as="geometry" />
        </mxCell>
        <mxCell id="GR9pu1r3niY57sTmeitB-51" value="&lt;span&gt;判断当前用户是否获取过新人奖励&lt;/span&gt;" style="strokeWidth=2;html=1;shape=mxgraph.flowchart.decision;whiteSpace=wrap;fillColor=#FFFFFF;fontSize=12;" vertex="1" parent="1">
          <mxGeometry x="390" y="510" width="160" height="80" as="geometry" />
        </mxCell>
        <mxCell id="GR9pu1r3niY57sTmeitB-52" value="" style="endArrow=none;dashed=1;html=1;strokeColor=#66B2FF;fontSize=12;fontColor=#00FFFF;exitX=1;exitY=0.5;" edge="1" parent="1" source="GR9pu1r3niY57sTmeitB-48">
          <mxGeometry width="50" height="50" relative="1" as="geometry">
            <mxPoint x="530" y="450" as="sourcePoint" />
            <mxPoint x="420" y="900" as="targetPoint" />
            <Array as="points" />
          </mxGeometry>
        </mxCell>
        <mxCell id="GR9pu1r3niY57sTmeitB-53" value="" style="endArrow=none;dashed=1;html=1;strokeColor=#66B2FF;fontSize=12;fontColor=#00FFFF;entryX=1;entryY=0.5;entryPerimeter=0;exitX=0;exitY=0.5;" edge="1" parent="1" source="GR9pu1r3niY57sTmeitB-54" target="GR9pu1r3niY57sTmeitB-38">
          <mxGeometry width="50" height="50" relative="1" as="geometry">
            <mxPoint x="1570" y="965" as="sourcePoint" />
            <mxPoint x="1415" y="850" as="targetPoint" />
            <Array as="points" />
          </mxGeometry>
        </mxCell>
        <mxCell id="GR9pu1r3niY57sTmeitB-54" value="请求钱包系统进行奖励发放，记录发放唯一日志" style="shape=note;whiteSpace=wrap;html=1;strokeColor=#3399FF;fillColor=#FFFFFF;fontSize=12;fontColor=#000000;" vertex="1" parent="1">
          <mxGeometry x="1605" y="870" width="95" height="100" as="geometry" />
        </mxCell>
        <mxCell id="GR9pu1r3niY57sTmeitB-55" style="edgeStyle=orthogonalEdgeStyle;rounded=0;html=1;exitX=0.5;exitY=1;exitPerimeter=0;entryX=0.5;entryY=0;entryPerimeter=0;jettySize=auto;orthogonalLoop=1;strokeColor=#66B2FF;fontSize=12;fontColor=#000000;" edge="1" parent="1" source="GR9pu1r3niY57sTmeitB-56" target="GR9pu1r3niY57sTmeitB-44">
          <mxGeometry relative="1" as="geometry" />
        </mxCell>
        <mxCell id="GR9pu1r3niY57sTmeitB-56" value="签到（签到流程结束）签到奖励发放" style="strokeWidth=2;html=1;shape=mxgraph.flowchart.predefined_process;whiteSpace=wrap;fillColor=#ffffff;fontSize=12;strokeColor=#000000;" vertex="1" parent="1">
          <mxGeometry x="1160" y="410" width="100" height="60" as="geometry" />
        </mxCell>
        <mxCell id="GR9pu1r3niY57sTmeitB-57" value="已关注" style="strokeWidth=2;html=1;shape=mxgraph.flowchart.process;whiteSpace=wrap;fillColor=#FFFFFF;fontSize=12;" vertex="1" parent="1">
          <mxGeometry x="1315" y="300" width="100" height="60" as="geometry" />
        </mxCell>
        <mxCell id="GR9pu1r3niY57sTmeitB-58" value="未关注" style="strokeWidth=2;html=1;shape=mxgraph.flowchart.process;whiteSpace=wrap;fillColor=#FFFFFF;fontSize=12;" vertex="1" parent="1">
          <mxGeometry x="1505" y="300" width="100" height="60" as="geometry" />
        </mxCell>
        <mxCell id="GR9pu1r3niY57sTmeitB-59" value="所有关注的用户全部都要发送小程序卡片客服消息" style="shape=note;whiteSpace=wrap;html=1;fontSize=12;" vertex="1" parent="1">
          <mxGeometry x="1750" y="280" width="80" height="100" as="geometry" />
        </mxCell>
        <mxCell id="GR9pu1r3niY57sTmeitB-60" value="" style="endArrow=none;dashed=1;html=1;strokeColor=#66B2FF;fontSize=12;fontColor=#00FFFF;entryX=1;entryY=0.5;entryPerimeter=0;exitX=0;exitY=0.5;" edge="1" parent="1" source="GR9pu1r3niY57sTmeitB-59" target="GR9pu1r3niY57sTmeitB-58">
          <mxGeometry width="50" height="50" relative="1" as="geometry">
            <mxPoint x="1615" y="930" as="sourcePoint" />
            <mxPoint x="1515" y="930" as="targetPoint" />
            <Array as="points" />
          </mxGeometry>
        </mxCell>
      </root>
    </mxGraphModel>
  </diagram>
</mxfile>
